<svg width="20" height="19" viewBox="0 0 20 19" fill="green" xmlns="http://www.w3.org/2000/svg" >
<path  d="M1.99998 10.6159C1.98047 10.587 1.96529 10.5554 1.95493 10.522C1.80853 10.0688 1.27546 9.85571 0.841873 9.94956H0.819349C0.552852 10.012 0.319838 10.1729 0.167091 10.4C-0.543354 11.4962 1.19944 12.6083 1.88173 11.4831C1.92303 11.4164 1.93804 11.2954 1.99435 11.2447H3.05767V12.6937C3.05767 13.102 3.01638 13.5525 3.12337 13.9485C3.29793 14.5923 3.86478 15.0306 4.5039 15.1526C4.70426 15.1786 4.9066 15.1858 5.1083 15.1742H9.52488V16.077C9.46408 16.1092 9.4014 16.1377 9.33718 16.1624C8.50567 16.6373 8.75812 17.9287 9.71258 18.0479L9.86931 18.0545C11.0302 18.001 11.1917 16.3248 10.1509 16.0761V15.4501C10.1438 15.3591 10.1457 15.2676 10.1565 15.177H14.4088C14.6837 15.1915 14.9593 15.1767 15.231 15.1329C15.9114 14.9902 16.4895 14.4497 16.5899 13.7458C16.6176 13.4598 16.6251 13.1722 16.6124 12.8852V11.4399C16.6066 11.3775 16.6066 11.3146 16.6124 11.2522H17.4036C17.4975 11.2441 17.5921 11.2476 17.6851 11.2625C18.222 12.6825 20.0483 11.7074 19.5687 10.5314C19.2468 9.74309 18.0305 9.72714 17.7283 10.4976C17.7164 10.5408 17.6981 10.582 17.6739 10.6197H16.604V7.37244L17.6514 7.37901C17.6889 7.44283 17.6955 7.51415 17.7302 7.57891C18.1619 8.38414 19.4195 8.24337 19.6185 7.35742C19.8784 6.21058 18.3177 5.58929 17.7574 6.58973C17.657 6.76899 17.7302 6.73051 17.5059 6.73145H16.6012V4.70991C16.6012 3.87371 16.2004 3.12666 15.3267 2.91456C15.0528 2.86266 14.7735 2.84438 14.4952 2.86013H10.1574V1.95166C10.2184 1.91318 10.2879 1.90568 10.3451 1.87095C11.2123 1.38105 10.8491 -0.0520363 9.82802 0.00145822C8.63143 0.103755 8.51881 1.64947 9.42728 1.90474C9.57837 1.94791 9.52113 2.10276 9.52113 2.25292L9.50611 2.86576C9.21048 2.84511 8.90265 2.86107 8.60515 2.86107H5.45742C5.1158 2.86107 4.75542 2.83385 4.41944 2.9033C3.69022 3.05252 3.0755 3.72543 3.05861 4.47998V6.11297C3.05861 6.31663 3.068 6.52498 3.05861 6.72769H1.9784C1.80477 6.47899 1.84513 6.35229 1.47911 6.17304C0.283465 5.59398 -0.634389 7.47098 0.601617 8.01813C1.09714 8.2368 1.70623 8.06036 1.92959 7.54888C1.94496 7.48412 1.97269 7.42294 2.01124 7.36869H2.66256C2.79307 7.3635 2.92376 7.36633 3.05392 7.37713V10.3559C3.06352 10.4423 3.05972 10.5297 3.04266 10.615L1.99998 10.6159ZM13.9809 4.43306C14.5928 4.40866 14.6669 5.1069 14.1573 5.27771C13.5539 5.35091 13.4028 4.54662 13.9809 4.43306ZM14.025 12.7932C14.5646 12.7529 14.6894 13.4802 14.1057 13.6247C13.49 13.6379 13.4178 12.8974 14.0212 12.7932H14.025ZM6.95057 8.52117C6.99248 8.44863 7.02407 8.37061 7.04442 8.28936L7.17769 7.92616C7.2423 7.77253 7.31692 7.6233 7.40105 7.47943L7.16455 7.05054C7.06038 6.80559 7.56154 6.43113 7.75205 6.34854C7.91254 6.38326 8.06833 6.4987 8.21755 6.57096C8.4212 6.51465 8.60797 6.39546 8.81256 6.33071L9.24051 6.20964C9.6009 6.1111 9.12977 5.80984 9.81488 5.731C10.1396 5.6456 10.2841 5.90557 10.3573 6.17022C10.5072 6.23708 10.6648 6.285 10.8266 6.31287C10.9589 6.34854 11.4948 6.58222 11.5445 6.57847C11.7857 6.5597 11.8045 6.18618 12.1874 6.51465C12.255 6.57284 12.5487 6.89005 12.5497 6.97358C12.5497 7.20539 12.2249 7.31238 12.362 7.57422L12.4643 7.79101C12.5309 7.94888 12.587 8.11097 12.6323 8.27622C12.6764 8.4245 12.6369 8.5024 12.774 8.52773C12.984 8.56564 13.1846 8.6444 13.3643 8.75954C13.1006 9.34798 13.5229 9.34705 12.7327 9.51035C12.6182 9.7384 12.5872 10.0444 12.4446 10.325C12.1058 10.9951 12.896 10.8468 12.2709 11.4652C11.781 11.9495 11.7651 11.4925 11.5201 11.5112C11.4394 11.5277 11.362 11.5575 11.2911 11.5994C11.0275 11.7183 10.7505 11.8053 10.4662 11.8585C10.1771 11.9195 10.5009 12.2855 9.92562 12.3277C9.0988 12.2958 9.68818 11.942 9.13728 11.8397C8.94815 11.8096 8.76344 11.7563 8.58732 11.6811C7.94726 11.3883 8.37334 11.4718 7.89283 11.6811C7.64225 11.7918 7.20491 11.3235 7.15798 11.1659C7.11106 11.0082 7.26779 10.8149 7.33911 10.675C7.40105 10.5511 7.27436 10.4047 7.21992 10.2921C7.1268 10.0642 7.04597 9.83141 6.97779 9.59481C6.88394 9.31326 6.50854 9.7018 6.44378 9.08896C6.39029 8.57654 6.45974 8.61408 6.95057 8.52117ZM5.58693 4.434C6.12563 4.38707 6.2345 5.13693 5.6667 5.27865C5.11487 5.29366 4.95814 4.52691 5.58693 4.434ZM5.5813 12.7923C6.10405 12.7547 6.23825 13.4933 5.65169 13.6369C5.06512 13.636 4.9938 12.9246 5.5813 12.7923Z" fill="black"/>
<path d="M9.57463 11.042C9.73062 11.0567 9.88754 11.0589 10.0439 11.0485C10.3129 11.0226 10.5741 10.9432 10.8121 10.8151C11.0501 10.687 11.2602 10.5127 11.43 10.3024C12.5562 8.86466 11.416 6.92384 9.67411 7.03271C9.12282 7.08184 8.6132 7.3466 8.25604 7.76943C7.26123 8.98385 8.05332 10.8562 9.57463 11.042Z" fill="black"/>
</svg>
