<svg xmlns="http://www.w3.org/2000/svg" version="1.1" width="864" height="864">
<path d="M0 0 C16.99379857 3.08658775 33.96099909 6.31203926 50.92370605 9.56451416 C53.3106979 10.02204062 55.69782406 10.47886682 58.08508301 10.93499756 C61.48421196 11.58477392 64.88280031 12.23730645 68.28125 12.890625 C69.31767639 13.08836517 70.35410278 13.28610535 71.42193604 13.48983765 C72.37646667 13.67398224 73.33099731 13.85812683 74.31445312 14.04785156 C75.15012817 14.20819885 75.98580322 14.36854614 76.84680176 14.53375244 C79 15 79 15 82 16 C79.93030214 23.29079984 77.45272898 30.35944684 74.75 37.4375 C73.94486531 39.56493498 73.14018295 41.6925412 72.3359375 43.8203125 C71.74184082 45.38894043 71.74184082 45.38894043 71.13574219 46.98925781 C69.52639514 51.25548047 67.94693202 55.53237555 66.375 59.8125 C66.09068115 60.58561523 65.8063623 61.35873047 65.51342773 62.15527344 C64.41230129 65.15084145 63.3126557 68.14694934 62.21435547 71.14355469 C59.19492016 79.38043824 56.15167971 87.60782655 53.06640625 95.8203125 C52.805215 96.51572647 52.54402374 97.21114044 52.2749176 97.92762756 C50.96868822 101.40449952 49.66090146 104.88077508 48.35083008 108.35620117 C45.14484262 116.87360558 42.0319383 125.41896385 39 134 C42.91775674 135.96756519 46.83586779 137.92880865 50.7890625 139.82421875 C70.035441 149.12071395 86.56066522 161.2782681 102 176 C102.79148437 176.73863281 103.58296875 177.47726563 104.3984375 178.23828125 C124.22758939 197.26730947 137.58895095 222.781378 145 249 C145.21914063 249.7719873 145.43828125 250.54397461 145.6640625 251.33935547 C156.97136893 292.56987394 147.89561585 342.21691784 127.2109375 379.02734375 C121.84040516 388.34063485 116.2340956 397.02012134 109 405 C108.11668357 406.00216022 107.23389534 407.00478619 106.3515625 408.0078125 C88.97921503 427.55630089 67.28185052 442.54500822 42.97851562 452.21191406 C41.68103728 452.72872799 40.38781543 453.25638768 39.09960938 453.79589844 C16.76383931 463.10055239 -10.99735876 467.52162304 -35 464 C-34.98518082 464.99447647 -34.97036163 465.98895294 -34.95509338 467.01356506 C-34.83953206 478.41571121 -35.44881639 489.69065532 -36.27734375 501.05859375 C-36.41002499 502.94169781 -36.54213864 504.82484193 -36.67372131 506.70802307 C-37.01837958 511.62172231 -37.36983718 516.53490966 -37.7230835 521.44799805 C-38.21814085 528.35033479 -38.7039856 535.2533268 -39.19056702 542.15626526 C-39.44847609 545.81509212 -39.70903426 549.47371361 -39.97190857 553.13218689 C-40.09343371 554.83476921 -40.21470075 556.53736998 -40.33569336 558.23999023 C-40.42271216 559.46213809 -40.42271216 559.46213809 -40.51148891 560.70897579 C-40.80008485 564.84353303 -41.05952276 568.97766264 -41.27468872 573.11672974 C-41.31747987 573.93984933 -41.36027102 574.76296892 -41.40435886 575.61103153 C-41.48290596 577.16604939 -41.5578234 578.72125658 -41.62840939 580.27665615 C-41.79509041 583.62597994 -41.99309873 586.78729081 -43 590 C-49.69412287 589.47215613 -56.08658254 588.47126029 -62.6171875 586.92578125 C-63.94898796 586.61909515 -63.94898796 586.61909515 -65.30769348 586.30621338 C-68.16481446 585.64733402 -71.01992953 584.98020336 -73.875 584.3125 C-77.81568141 583.39789217 -81.75726174 582.48721804 -85.69921875 581.578125 C-87.15359093 581.24204979 -87.15359093 581.24204979 -88.63734436 580.89918518 C-94.43892178 579.56559261 -100.24863379 578.295828 -106.08203125 577.109375 C-107.08145752 576.90449715 -107.08145752 576.90449715 -108.10107422 576.69548035 C-111.12739328 576.07675319 -114.15548012 575.47260422 -117.18896484 574.88989258 C-118.22359863 574.68001709 -119.25823242 574.4701416 -120.32421875 574.25390625 C-121.21197998 574.08189697 -122.09974121 573.9098877 -123.0144043 573.73266602 C-123.99727417 573.36999634 -123.99727417 573.36999634 -125 573 C-126.18365882 569.44902354 -125.77882332 568.75363954 -124.4362793 565.37451172 C-124.06806564 564.43437225 -123.69985199 563.49423279 -123.32048035 562.52560425 C-122.90921402 561.50395172 -122.49794769 560.48229919 -122.07421875 559.4296875 C-121.65259964 558.36122589 -121.23098053 557.29276428 -120.79658508 556.19192505 C-119.43567302 552.74939485 -118.06176144 549.31221991 -116.6875 545.875 C-115.80318512 543.64356636 -114.9197127 541.41179867 -114.03710938 539.1796875 C-110.45077838 530.12250195 -106.83331146 521.07782914 -103.20996094 512.03540039 C-102.75949905 510.91082428 -102.30903717 509.78624817 -101.84492493 508.62759399 C-100.99318892 506.50226364 -100.14053978 504.3772989 -99.28678894 502.2527771 C-96.59403434 495.53822367 -94.0202898 488.79097208 -91.515625 482.00390625 C-89.31452083 476.11155646 -86.92166477 470.29206727 -84.53857422 464.47143555 C-84.04381592 463.25194214 -84.04381592 463.25194214 -83.5390625 462.0078125 C-83.09361084 460.91944092 -83.09361084 460.91944092 -82.63916016 459.80908203 C-81.88895791 458.00548465 -81.88895791 458.00548465 -82 456 C-83.09957031 455.57589844 -84.19914063 455.15179688 -85.33203125 454.71484375 C-94.16721533 451.23722881 -102.2160895 447.52618266 -110 442 C-110.73347656 441.48824219 -111.46695313 440.97648437 -112.22265625 440.44921875 C-113.82737259 439.31666547 -115.41611887 438.16151283 -117 437 C-117.41507813 437.62261719 -117.83015625 438.24523437 -118.2578125 438.88671875 C-118.87398437 439.81097656 -119.49015625 440.73523438 -120.125 441.6875 C-120.85332031 442.780625 -121.58164062 443.87375 -122.33203125 445 C-124.30541997 447.96046301 -126.28300042 450.91809684 -128.26171875 453.875 C-134.27315202 462.86532063 -140.24311611 471.87734097 -146.09912109 480.96972656 C-150.22480282 487.36855719 -154.44237079 493.70338414 -158.68017578 500.02832031 C-160.57871794 502.86454422 -162.47140088 505.70465781 -164.36352539 508.54516602 C-165.36787035 510.05176456 -166.37355886 511.55746836 -167.38061523 513.06225586 C-170.04591263 517.04798369 -172.68507317 521.0481217 -175.2890625 525.07421875 C-175.8267627 525.89881592 -176.36446289 526.72341309 -176.91845703 527.57299805 C-177.95050374 529.15675482 -178.97528029 530.74527994 -179.99169922 532.33911133 C-180.45850098 533.05220459 -180.92530273 533.76529785 -181.40625 534.5 C-181.81166016 535.1290625 -182.21707031 535.758125 -182.63476562 536.40625 C-184.2298496 538.26832228 -185.76114963 539.04831015 -188 540 C-188.9178125 539.14277344 -189.835625 538.28554688 -190.78125 537.40234375 C-199.24903751 529.50162905 -199.24903751 529.50162905 -207.921875 521.828125 C-211.32864244 518.83119424 -214.64692076 515.73635298 -217.96533203 512.64208984 C-220.76318121 510.01762121 -220.76318121 510.01762121 -224 508 C-224 507.34 -224 506.68 -224 506 C-224.58861816 505.73356689 -225.17723633 505.46713379 -225.78369141 505.19262695 C-228.04610934 503.97518791 -229.60911572 502.68828522 -231.4609375 500.91796875 C-232.09773438 500.31533203 -232.73453125 499.71269531 -233.390625 499.09179688 C-234.37289062 498.14916992 -234.37289062 498.14916992 -235.375 497.1875 C-236.67299686 495.95026594 -237.97245655 494.71456459 -239.2734375 493.48046875 C-239.89702148 492.88669434 -240.52060547 492.29291992 -241.16308594 491.68115234 C-242.87876329 490.1109564 -244.64684215 488.67208149 -246.4765625 487.23828125 C-247.30929688 486.49964844 -248.14203125 485.76101563 -249 485 C-249 484.01 -249 483.02 -249 482 C-246.91522103 480.16755739 -244.8507798 478.51923636 -242.625 476.875 C-237.30455692 472.83100715 -232.27229966 468.62973465 -227.34765625 464.10546875 C-224.22949508 461.30898145 -220.95935256 458.73385264 -217.671875 456.140625 C-214.71458658 453.77133544 -211.8215825 451.33218708 -208.9375 448.875 C-203.83447012 444.53027011 -198.68079443 440.25166479 -193.5 436 C-187.80909254 431.32879548 -182.1579583 426.61638911 -176.54882812 421.84741211 C-169.79532615 416.1135691 -162.923672 410.5265739 -156 405 C-156.4688389 399.83279683 -159.13586783 396.46829395 -162.0625 392.375 C-162.55403564 391.67294434 -163.04557129 390.97088867 -163.55200195 390.24755859 C-167.15984164 385.1139339 -170.85985196 380.04965531 -174.63671875 375.0390625 C-176 373 -176 373 -176 371 C-177.34964844 371.67482422 -177.34964844 371.67482422 -178.7265625 372.36328125 C-218.3984375 392.19921875 -218.3984375 392.19921875 -220.42016602 393.20996094 C-221.72026379 393.86009101 -223.02023192 394.51048041 -224.32006836 395.16113281 C-227.45387222 396.72943073 -230.58973255 398.29328302 -233.73046875 399.84765625 C-241.66352087 403.78156956 -249.53114698 407.82844636 -257.375 411.9375 C-264.66521602 415.75284989 -271.9648801 419.54616913 -279.3125 423.25 C-280.06515137 423.632771 -280.81780273 424.01554199 -281.59326172 424.40991211 C-286.76373907 427 -286.76373907 427 -289 427 C-289.38220703 425.76773682 -289.76441406 424.53547363 -290.15820312 423.26586914 C-300.65635917 388.75656648 -300.65635917 388.75656648 -311.86962891 354.47851562 C-312.28414307 353.27485352 -312.28414307 353.27485352 -312.70703125 352.046875 C-313.07985229 350.98484863 -313.07985229 350.98484863 -313.46020508 349.90136719 C-314 348 -314 348 -314 345 C-273.48880708 337.17802373 -232.7007071 330.74774013 -192 324 C-192.10610596 322.21082153 -192.10610596 322.21082153 -192.21435547 320.38549805 C-193.14014085 304.48134201 -193.14014085 304.48134201 -193.125 296.8125 C-193.12886719 296.14154297 -193.13273437 295.47058594 -193.13671875 294.77929688 C-193.1282717 290.43328992 -192.64640009 286.2914675 -192 282 C-193.15253769 282.0097435 -194.30507538 282.019487 -195.49253845 282.02952576 C-206.98344191 282.09636685 -218.40543193 281.76017763 -229.87890625 281.16015625 C-231.62790179 281.07241509 -233.37692083 280.98514112 -235.1259613 280.89830017 C-239.68458903 280.67093402 -244.2429276 280.43824536 -248.8012085 280.20404053 C-256.04998682 279.83247675 -263.29916401 279.46872115 -270.54835129 279.10523605 C-272.30338903 279.01720059 -274.0584169 278.92896823 -275.8134346 278.84053421 C-290.20543798 278.11637482 -304.59795588 277.49196806 -319 277 C-318.30800906 267.98602652 -316.1795461 259.28937713 -314.18359375 250.49609375 C-313.80345564 248.80511318 -313.42374749 247.11403589 -313.04444885 245.42286682 C-312.05083913 240.99804084 -311.05143842 236.57454292 -310.05078125 232.15130615 C-309.02836579 227.62705667 -308.01149442 223.10156172 -306.99414062 218.57617188 C-305.00148451 209.71622782 -303.00270165 200.85767835 -301 192 C-294.73434952 193.81824614 -288.57677505 195.79462151 -282.46875 198.0859375 C-281.66723511 198.38390228 -280.86572021 198.68186707 -280.03991699 198.98886108 C-277.35819855 199.98797441 -274.67878646 200.99305284 -272 202 C-271.03787598 202.36162231 -270.07575195 202.72324463 -269.08447266 203.0958252 C-262.68949398 205.50208982 -256.29808481 207.91774522 -249.90756226 210.33581543 C-227.96749303 218.63641175 -206.00495623 226.87300227 -184 235 C-183.20794325 233.26189646 -182.41637151 231.52357189 -181.625 229.78515625 C-181.18414062 228.81715088 -180.74328125 227.84914551 -180.2890625 226.85180664 C-179.17518014 224.38755289 -178.0810128 221.91629297 -177 219.4375 C-173.90170761 212.47883524 -170.9437036 205.85920427 -166 200 C-166 199.34 -166 198.68 -166 198 C-168.03717203 196.47756912 -168.03717203 196.47756912 -170.6875 194.92578125 C-176.65592743 191.23362667 -182.45948482 187.33861137 -188.2538147 183.38009644 C-191.30553035 181.29585875 -194.36152583 179.21792203 -197.41796875 177.140625 C-198.04422653 176.71498764 -198.67048431 176.28935028 -199.3157196 175.85081482 C-205.95652293 171.34251991 -212.63056666 166.88452894 -219.3125 162.4375 C-219.88150024 162.05878754 -220.45050049 161.68007507 -221.03674316 161.28988647 C-223.74286511 159.48915218 -226.44962212 157.68937598 -229.15673828 155.89013672 C-232.856895 153.43035539 -236.55375847 150.96565868 -240.25 148.5 C-241.37888157 147.74735881 -242.50778709 146.99475356 -243.63671875 146.2421875 C-251.7578125 140.828125 -259.87890625 135.4140625 -268 130 C-266.58261511 126.74792908 -264.87473588 124.68638933 -262.3125 122.25 C-257.59566714 117.65236508 -253.31966708 112.75342596 -249.078125 107.71875 C-248.45421875 106.9865625 -247.8303125 106.254375 -247.1875 105.5 C-246.62417969 104.8296875 -246.06085938 104.159375 -245.48046875 103.46875 C-244 102 -244 102 -242 102 C-241.731875 101.41734375 -241.46375 100.8346875 -241.1875 100.234375 C-239.98519009 97.97213399 -238.66174087 96.19423682 -237 94.25 C-236.484375 93.63640625 -235.96875 93.0228125 -235.4375 92.390625 C-234 91 -234 91 -232 91 C-231.72800781 90.41089844 -231.45601563 89.82179688 -231.17578125 89.21484375 C-228.26339186 83.72871489 -223.40470674 79.29727487 -219 75 C-217.72783665 73.73049808 -216.45705804 72.45960735 -215.1875 71.1875 C-214.125 70.125 -213.0625 69.0625 -212 68 C-207.61800166 69.58586607 -205.13097802 73.02647068 -202.25 76.5 C-201.44731689 77.45265747 -201.44731689 77.45265747 -200.62841797 78.42456055 C-197.10163338 82.62663034 -193.64977751 86.88513051 -190.24609375 91.1875 C-183.02627888 100.22796384 -175.62116643 109.12526333 -168.125 117.9375 C-164.43126836 122.28000583 -160.8278349 126.6818981 -157.28515625 131.1484375 C-148.67784016 141.88919091 -139.82929662 152.44146326 -131 163 C-128.04319447 161.66070297 -125.91888235 160.15743259 -123.5625 157.9375 C-120.04129539 154.79803346 -116.35288051 151.96669609 -112.5 149.25 C-111.4584375 148.51265625 -110.416875 147.7753125 -109.34375 147.015625 C-105.62068088 144.77134502 -102.10282591 143.40923151 -98 142 C-102.9987749 130.68992271 -108.13843617 119.49429177 -113.74511719 108.47314453 C-116.45260586 103.1371795 -119.13264124 97.78738088 -121.8125 92.4375 C-122.11526855 91.83339294 -122.41803711 91.22928589 -122.72998047 90.60687256 C-127.25787827 81.56582092 -131.67802463 72.47808938 -136.00683594 63.33984375 C-139.70382019 55.55556168 -143.55015634 47.85089472 -147.47338867 40.17822266 C-149.66599583 35.85177168 -151.64039135 31.67797551 -153 27 C-146.23859523 25.02531095 -139.47644822 23.05317647 -132.71386719 21.08251953 C-130.21700472 20.35473303 -127.72026182 19.62653619 -125.22363281 18.89794922 C-111.41166652 14.86747139 -97.59480316 10.85398162 -83.75 6.9375 C-82.70271729 6.6384375 -81.65543457 6.339375 -80.57641602 6.03125 C-79.61791748 5.76183594 -78.65941895 5.49242187 -77.671875 5.21484375 C-76.8375293 4.97886475 -76.00318359 4.74288574 -75.14355469 4.49975586 C-73 4 -73 4 -70 4 C-68.13074183 10.88074037 -66.98952193 17.79803911 -65.8984375 24.83984375 C-65.5953354 26.76509484 -65.29223104 28.69034557 -64.98903275 30.61558151 C-64.66835221 32.65600284 -64.34938964 34.69668589 -64.03094482 36.73745728 C-63.03638725 43.11033051 -62.03168311 49.48160678 -61.02717972 55.85291862 C-60.80025765 57.29248936 -60.57346936 58.73208118 -60.3468132 60.1716938 C-57.75076805 76.65837294 -55.05702866 93.12874053 -52.33740234 109.59545898 C-52.09836182 111.04802597 -52.09836182 111.04802597 -51.85449219 112.52993774 C-51.5592038 114.32401626 -51.26257829 116.11787543 -50.96435547 117.91146851 C-50 123.77491028 -50 123.77491028 -50 126 C-48.96230469 125.84789062 -47.92460937 125.69578125 -46.85546875 125.5390625 C-40.69689939 124.77144518 -34.51006515 124.60169953 -28.3125 124.375 C-27.10271484 124.3234375 -25.89292969 124.271875 -24.64648438 124.21875 C-23.48052734 124.17492187 -22.31457031 124.13109375 -21.11328125 124.0859375 C-20.05923096 124.0451709 -19.00518066 124.0044043 -17.91918945 123.96240234 C-15.13714031 123.9982337 -12.69980164 124.3557822 -10 125 C-9.91081299 123.62739014 -9.91081299 123.62739014 -9.81982422 122.22705078 C-8.13968054 96.57612693 -6.1556919 70.95199113 -4.0789566 45.33065033 C-3.87520056 42.81497616 -3.67212377 40.29924789 -3.46917725 37.7835083 C-3.14477186 33.76522142 -2.81824944 29.74711186 -2.49002075 25.72913551 C-2.36798437 24.23302306 -2.2464702 22.7368679 -2.1255188 21.24066734 C-1.5508434 14.14182075 -0.97339762 7.05741669 0 0 Z " fill="#ECA441" transform="translate(428,54)"/>
<path d="M0 0 C1.95389648 -0.01160156 1.95389648 -0.01160156 3.94726562 -0.0234375 C38.36964912 0.04509885 69.37904781 14.28861712 94.5625 37.25 C95.29726563 37.91386719 96.03203125 38.57773438 96.7890625 39.26171875 C118.93641204 60.30611263 134.92533644 93.16553076 135.85255432 123.78030396 C135.91536425 127.00602313 135.93374213 130.23049381 135.93310547 133.45678711 C135.93746292 135.91656642 135.97386196 138.37452222 136.01171875 140.83398438 C136.11512967 155.26192984 133.45207821 168.44642976 128.25 181.9375 C127.95077637 182.72656738 127.65155273 183.51563477 127.34326172 184.32861328 C114.3997384 217.75419549 89.62735404 244.63218405 56.97363281 259.58129883 C41.67479428 266.26610252 26.28969628 270.61829714 9.5625 271.25 C8.67046875 271.28399902 7.7784375 271.31799805 6.859375 271.35302734 C-27.42336362 272.45801745 -60.07337605 262.84782053 -86.4375 240.25 C-86.9432959 239.82106445 -87.4490918 239.39212891 -87.97021484 238.95019531 C-115.95810409 215.03149871 -132.40276661 181.81405572 -135.4375 145.25 C-136.39578328 130.42703086 -135.17507734 116.61244536 -131.4375 102.25 C-131.26089844 101.55358398 -131.08429688 100.85716797 -130.90234375 100.13964844 C-121.80888955 65.26456759 -98.2869775 35.80331101 -67.44335938 17.58300781 C-46.42146021 5.57780444 -24.18963561 -0.14320455 0 0 Z " fill="#FDFDFD" transform="translate(405.4375,213.75)"/>
<path d="M0 0 C3.00578716 2.00423662 6.03989218 3.96295629 9.07714844 5.91894531 C11.393092 7.41504531 13.70783445 8.91299626 16.02246094 10.41113281 C17.12404541 11.12342041 18.22562988 11.83570801 19.3605957 12.56958008 C25.65566609 16.68087045 31.82685981 20.87694139 37.58496094 25.72363281 C38.16503906 26.15345459 38.74511719 26.58327637 39.34277344 27.02612305 C41.29319979 29.69147573 40.68154992 31.81847436 40.36230469 35.05175781 C40.24128029 36.41038688 40.12139408 37.76911766 40.00244141 39.12792969 C39.93321472 39.86551514 39.86398804 40.60310059 39.79266357 41.36303711 C39.41641669 45.63918299 39.17096669 49.92406844 38.90136719 54.20800781 C38.77793085 56.06874566 38.65357045 57.92942242 38.52832031 59.79003906 C38.33634518 62.64188987 38.14616453 65.49378285 37.96264648 68.34619141 C36.28285625 94.39072721 36.28285625 94.39072721 32.89746094 101.03613281 C31.16762747 104.57817277 31.60302844 105.90598493 32.58496094 109.72363281 C33.96918322 112.77025532 35.58556161 115.67459538 37.20996094 118.59863281 C49.88254101 142.13987499 57.95452134 167.02873407 62.27246094 193.41113281 C62.45180176 194.49624146 62.45180176 194.49624146 62.63476562 195.60327148 C64.65419502 208.75736628 64.78872956 222.01011893 64.77246094 235.28613281 C64.77205307 236.54195663 64.77205307 236.54195663 64.77163696 237.82315063 C64.75264234 250.56002998 64.34524183 263.0931353 62.58496094 275.72363281 C62.48844238 276.47918457 62.39192383 277.23473633 62.29248047 278.01318359 C59.62811455 298.69373813 54.3631882 319.02690181 47.58496094 338.72363281 C47.18108154 339.91013428 47.18108154 339.91013428 46.76904297 341.12060547 C43.1122534 351.76649549 38.86622736 361.87044245 33.59228516 371.81494141 C32.59276811 373.70883967 31.61985442 375.61449231 30.65136719 377.52441406 C26.28173678 386.05065678 21.31910878 394.03046652 15.85400391 401.89599609 C14.61949886 403.67389235 13.40080259 405.46187592 12.18261719 407.25097656 C6.38396058 415.66244795 -0.08251317 423.3579882 -6.87768555 430.97900391 C-8.4648056 432.78010918 -10.01259076 434.61065956 -11.55957031 436.44628906 C-13.67730364 438.92505473 -15.83632133 441.13831072 -18.35253906 443.22363281 C-20.88920484 445.37480154 -23.25613868 447.55741578 -25.54003906 449.97363281 C-64.06366854 489.02258452 -127.15349872 513.56607262 -181.49975586 513.99609375 C-185.14256093 513.96539502 -188.77516998 513.87459512 -192.41503906 513.72363281 C-192.01238683 500.61660827 -191.13723823 487.58910958 -189.91503906 474.53613281 C-189.84932709 473.82255615 -189.78361511 473.10897949 -189.71591187 472.3737793 C-189.52641176 470.32977813 -189.33130261 468.28640494 -189.13378906 466.24316406 C-189.01970703 465.05827393 -188.905625 463.87338379 -188.78808594 462.65258789 C-188.41503906 459.72363281 -188.41503906 459.72363281 -187.41503906 456.72363281 C-186.81780029 456.68399414 -186.22056152 456.64435547 -185.60522461 456.60351562 C-161.42486551 454.92968639 -138.2398559 450.73511628 -116.41503906 439.72363281 C-115.74424316 439.39411621 -115.07344727 439.06459961 -114.38232422 438.72509766 C-94.33559096 428.83814755 -76.75103807 415.96057378 -60.41503906 400.72363281 C-59.55136719 399.93730469 -58.68769531 399.15097656 -57.79785156 398.34082031 C-50.02211974 390.97077885 -44.04294749 382.64314466 -37.94262695 373.87841797 C-35.93943505 371.05275523 -33.84731905 368.29979681 -31.73583984 365.55444336 C-29.87293621 362.9722041 -28.3803521 360.24453225 -26.88378906 357.43847656 C-25.74999044 355.34275837 -24.58556978 353.28388272 -23.38378906 351.22753906 C-15.17795681 337.11086228 -8.30091548 322.33034451 -3.41503906 306.72363281 C-3.17543457 305.96195801 -2.93583008 305.2002832 -2.68896484 304.41552734 C13.47561258 251.92421411 8.90277922 195.02705907 -16.54785156 146.20800781 C-18.50977791 142.54683982 -20.50007302 138.9076868 -22.60253906 135.32519531 C-23.41503906 133.72363281 -23.41503906 133.72363281 -23.41503906 131.72363281 C-24.12805176 131.46259766 -24.84106445 131.2015625 -25.57568359 130.93261719 C-28.56411107 129.66015864 -31.11487858 128.13800945 -33.84472656 126.37988281 C-34.88024658 125.71537109 -35.9157666 125.05085937 -36.98266602 124.36621094 C-38.07409912 123.65916016 -39.16553223 122.95210937 -40.29003906 122.22363281 C-41.42294984 121.4935887 -42.55600733 120.76377221 -43.68920898 120.03417969 C-50.89901602 115.38502285 -58.07683093 110.68963545 -65.18847656 105.89160156 C-67.34911492 104.43984092 -69.52121984 103.00500943 -71.70410156 101.58691406 C-74.63954433 99.67487008 -77.53241574 97.71411578 -80.41503906 95.72363281 C-81.24648438 95.18609375 -82.07792969 94.64855469 -82.93457031 94.09472656 C-85.22685322 92.42870658 -86.76293494 91.02438454 -88.41503906 88.72363281 C-88.76318359 86.38061523 -88.76318359 86.38061523 -88.67285156 83.64160156 C-88.64320313 82.57699707 -88.61355469 81.51239258 -88.58300781 80.41552734 C-88.52757812 79.19720215 -88.47214844 77.97887695 -88.41503906 76.72363281 C-88.35889031 75.31201804 -88.3029088 73.90039661 -88.24707031 72.48876953 C-88.08218591 68.56570002 -87.88259961 64.64513719 -87.67041016 60.72436523 C-87.54046452 58.29408983 -87.42090872 55.86344273 -87.30175781 53.43261719 C-85.83752443 25.0722727 -85.83752443 25.0722727 -78.99707031 17.06347656 C-76.37194592 14.84022306 -73.76648157 14.89698329 -70.41503906 14.72363281 C-65.13683275 15.75352673 -62.33941351 19.49578431 -59.41503906 23.72363281 C-58.7021875 24.73683594 -57.98933594 25.75003906 -57.25488281 26.79394531 C-48.28632486 41.04852888 -50.06850209 58.63309358 -52.41503906 74.72363281 C-51.68816895 74.99691406 -50.96129883 75.27019531 -50.21240234 75.55175781 C-47.52220445 76.67873895 -45.15008798 77.96544912 -42.65722656 79.47363281 C-41.78453125 79.99957031 -40.91183594 80.52550781 -40.01269531 81.06738281 C-39.11421875 81.61394531 -38.21574219 82.16050781 -37.29003906 82.72363281 C-35.93072266 83.54347656 -35.93072266 83.54347656 -34.54394531 84.37988281 C-31.12834212 86.44442519 -27.73626725 88.50948069 -24.41503906 90.72363281 C-20.83365436 90.37181187 -18.08484952 89.21409642 -14.94628906 87.50878906 C-13.71845703 86.85040039 -13.71845703 86.85040039 -12.46582031 86.17871094 C-11.6240625 85.71916016 -10.78230469 85.25960937 -9.91503906 84.78613281 C-8.23918385 83.87891257 -6.56213399 82.97389504 -4.88378906 82.07128906 C-3.77680664 81.46812866 -3.77680664 81.46812866 -2.64746094 80.8527832 C-0.2843794 79.65754566 2.1140453 78.67304466 4.58496094 77.72363281 C7.35613361 59.23259081 7.35613361 59.23259081 2.35302734 41.95959473 C-3.67862267 35.45873914 -11.86945004 31.42339459 -19.66699219 27.43119812 C-24.52745424 24.87912219 -26.83280377 22.51344872 -29.41503906 17.72363281 C-29.85332031 17.04816406 -30.29160156 16.37269531 -30.74316406 15.67675781 C-33.64681405 10.3123875 -34.68856714 4.82330897 -34.41503906 -1.27636719 C-33.28600579 -4.65377573 -32.31845286 -7.1256903 -29.41503906 -9.27636719 C-17.9135373 -12.25896002 -9.1540501 -6.15362118 0 0 Z " fill="#50AA72" transform="translate(597.4150390625,100.2763671875)"/>
<path d="M0 0 C0.64195312 0.48984375 1.28390625 0.9796875 1.9453125 1.484375 C14.61920572 11.60075613 25.732932 29.27699129 30.0625 44.8125 C29.98619869 48.70386679 29.04622302 51.72444051 27 55 C24.779316 56.69194971 23.02380204 57.81412638 20.5625 59 C19.90854248 59.3290332 19.25458496 59.65806641 18.58081055 59.99707031 C-8.50321677 73.15586407 -41.80097247 80.09906374 -71 70 C-95.66278548 60.77453269 -114.65960357 42.00182737 -127 19 C-127 18.34 -127 17.68 -127 17 C-119.62482779 17.67671397 -112.42689741 18.96384635 -105.15630341 20.36045074 C-102.98909022 20.77672417 -100.82109934 21.18872484 -98.65289307 21.59979248 C-94.01786573 22.47938458 -89.38391418 23.36456568 -84.75 24.25 C-78.70375785 25.40438043 -72.65698297 26.55592049 -66.609375 27.703125 C-65.87102921 27.84328537 -65.13268341 27.98344574 -64.3719635 28.12785339 C-49.61039078 30.92555014 -34.81682892 33.51117337 -20 36 C-20.90051842 35.65949112 -20.90051842 35.65949112 -21.81922913 35.31210327 C-31.68387377 31.58098061 -41.53030454 27.81809198 -51.3125 23.875 C-57.56155591 21.35831127 -63.82633828 18.90952725 -70.14526367 16.57202148 C-74.91101171 14.80115201 -79.65551092 12.97777701 -84.39453125 11.13671875 C-85.06468765 10.87647919 -85.73484406 10.61623962 -86.42530823 10.34811401 C-89.80453693 9.03523369 -93.18274098 7.71978073 -96.55981445 6.40136719 C-104.99005447 3.11843494 -113.46313535 -0.00424643 -122 -3 C-121 -6 -121 -6 -118.4375 -7.4296875 C-109.1280143 -11.34390308 -99.77584904 -14.46663152 -90 -17 C-88.81792969 -17.32226562 -87.63585937 -17.64453125 -86.41796875 -17.9765625 C-55.37807967 -25.17324318 -24.81895545 -19.88859056 0 0 Z " fill="#50AA72" transform="translate(768,481)"/>
<path d="M0 0 C0.99 0.99 0.99 0.99 2 2 C0.18404802 19.55420243 -13.30177712 36.76249734 -25 49 C-25.62390625 49.69867188 -26.2478125 50.39734375 -26.890625 51.1171875 C-38.91270692 64.09901545 -56.53704628 70.88618974 -74 72 C-88.13776533 72.11066744 -102.07088457 69.87687065 -115 64 C-112.42780205 61.03606566 -109.5065929 59.54695387 -106.03125 57.77734375 C-105.44357849 57.47589951 -104.85590698 57.17445526 -104.25042725 56.86387634 C-102.3362129 55.88324611 -100.41811356 54.91047771 -98.5 53.9375 C-97.16860136 53.25669435 -95.83754865 52.57521179 -94.50683594 51.89306641 C-92.51388376 50.87149821 -90.5207632 49.85028203 -88.52655029 48.83117676 C-83.4136147 46.21796653 -78.32451366 43.5621071 -73.25 40.875 C-61.8640359 34.85786011 -50.43010297 28.9327344 -39 23 C-58.4177802 28.5623992 -77.64701999 34.6706208 -96.86157227 40.89477539 C-98.83739308 41.53144151 -100.81322279 42.16808004 -102.7890625 42.8046875 C-103.68512711 43.09712845 -104.58119171 43.3895694 -105.50440979 43.69087219 C-110.96056831 45.44518549 -116.38708552 46.83682301 -122 48 C-121.43847251 42.96185059 -119.77469449 38.84916116 -117.5 34.375 C-116.96596558 33.32276245 -116.96596558 33.32276245 -116.42114258 32.24926758 C-106.20337715 12.6976881 -89.94879464 -2.70666167 -68.84765625 -9.71484375 C-45.72106489 -15.98879032 -21.29116254 -9.57094846 0 0 Z " fill="#50AA72" transform="translate(779,369)"/>
<path d="M0 0 C4.62 0 9.24 0 14 0 C14.33 7.59 14.66 15.18 15 23 C16.98 21.68 18.96 20.36 21 19 C26.13103484 18.01991469 30.65981891 18.41519371 35.4375 20.5 C40.51703104 25.45564004 42.18309099 29.79687857 42.37779236 36.82897949 C42.39981477 40.55472088 42.33391329 44.27535836 42.25 48 C42.22990643 49.55336242 42.2116607 51.1067499 42.1953125 52.66015625 C42.15495947 56.44123561 42.0766461 60.21879235 42 64 C37.38 64 32.76 64 28 64 C27.95101562 62.02515625 27.90203125 60.0503125 27.8515625 58.015625 C27.77653189 55.42706908 27.70098419 52.83852811 27.625 50.25 C27.5940625 48.94804688 27.563125 47.64609375 27.53125 46.3046875 C27.49257812 45.05429687 27.45390625 43.80390625 27.4140625 42.515625 C27.36693115 40.78747559 27.36693115 40.78747559 27.31884766 39.02441406 C27.01325907 36.12576828 26.63381095 34.39208685 25 32 C21.6813976 30.86468865 19.31010574 30.89663142 16 32 C14.94044752 35.51424524 14.80001859 38.85655874 14.68359375 42.515625 C14.64169922 43.76601563 14.59980469 45.01640625 14.55664062 46.3046875 C14.51732422 47.60664062 14.47800781 48.90859375 14.4375 50.25 C14.39431641 51.56742188 14.35113281 52.88484375 14.30664062 54.2421875 C14.20058146 57.49466854 14.09978847 60.74732053 14 64 C9.38 64 4.76 64 0 64 C0 42.88 0 21.76 0 0 Z " fill="#50AA72" transform="translate(142,717)"/>
<path d="M0 0 C4.62 0 9.24 0 14 0 C14.33 11.55 14.66 23.1 15 35 C16.27875 32.525 17.5575 30.05 18.875 27.5 C21.03825225 23.83142732 23.03651157 20.62268432 27.24023438 19.28955078 C32.55294718 18.66546705 37.72984737 19.22497755 43 20 C41.7315625 21.485 41.7315625 21.485 40.4375 23 C39.89609375 23.63550781 39.3546875 24.27101563 38.796875 24.92578125 C37.57583295 26.33528849 36.33535242 27.72814034 35.078125 29.10546875 C34.45421875 29.79253906 33.8303125 30.47960937 33.1875 31.1875 C32.60355469 31.82042969 32.01960938 32.45335937 31.41796875 33.10546875 C29.81985843 35.24068501 29.25871457 36.34751346 29 39 C30.23388389 41.54154566 30.23388389 41.54154566 32.1484375 44.09765625 C32.82390625 45.06380859 33.499375 46.02996094 34.1953125 47.02539062 C34.91460937 48.02763672 35.63390625 49.02988281 36.375 50.0625 C37.78157091 52.05131991 39.1853515 54.04211705 40.5859375 56.03515625 C41.53025635 57.35592163 41.53025635 57.35592163 42.49365234 58.70336914 C44 61 44 61 45 64 C39.06 64 33.12 64 27 64 C24.03 58.72 21.06 53.44 18 48 C17.01 48.66 16.02 49.32 15 50 C14.41312216 53.34613512 14.41312216 53.34613512 14.3125 57.125 C14.209375 59.39375 14.10625 61.6625 14 64 C9.38 64 4.76 64 0 64 C0 42.88 0 21.76 0 0 Z " fill="#50AA72" transform="translate(241,717)"/>
<path d="M0 0 C-1 8.57142857 -1 8.57142857 -2 12 C-2.94875 11.835 -3.8975 11.67 -4.875 11.5 C-12.92343121 10.41061638 -20.21327184 9.87468797 -27 15 C-32.07876396 21.38101112 -32.7696842 27.06466434 -32 35 C-30.71688151 39.42859181 -28.76643523 42.27095186 -25.4375 45.4375 C-17.92046856 48.85433247 -9.99345365 48.17936201 -2 47 C-1.505 52.445 -1.505 52.445 -1 58 C-9.06131803 62.03065901 -18.9868181 62.01022531 -27.671875 59.80859375 C-36.28260833 56.81795315 -41.88587372 52.11317211 -46 44 C-49.54408122 35.78417536 -49.15713033 25.46685204 -46.375 17.0625 C-42.56145326 8.09409008 -37.62732164 4.36373011 -28.90234375 0.1640625 C-19.7809058 -3.49433388 -9.25527421 -2.90361544 0 0 Z " fill="#50AA72" transform="translate(135,721)"/>
<path d="M0 0 C5.6914056 3.27630257 8.40299923 7.89649768 10.4375 14 C11.27978237 22.57924757 10.89962076 30.02761544 5.4375 37 C-0.88717781 42.5143988 -6.55286153 44.39560676 -14.8359375 44.2734375 C-21.22386417 43.63281448 -26.70013322 41.40030927 -31.0625 36.625 C-36.0503364 29.93228166 -36.21482339 23.11661398 -35.5625 15 C-34.50088621 8.78798267 -31.43174009 5.43877106 -26.6953125 1.4453125 C-18.97076262 -3.78927258 -8.39630921 -3.74430005 0 0 Z M-17.875 9.8125 C-21.54839361 14.57430653 -21.03821372 20.25042556 -20.5625 26 C-19.04380027 30.36936489 -19.04380027 30.36936489 -15.5625 33 C-12.6467309 33.41702122 -12.6467309 33.41702122 -9.5625 33 C-7.25974444 31.1329009 -5.88426129 29.64352259 -4.5625 27 C-4.41398156 25.06640414 -4.34119167 23.12657903 -4.3125 21.1875 C-4.28671875 20.14980469 -4.2609375 19.11210938 -4.234375 18.04296875 C-4.70801031 13.65056508 -6.48371943 11.07878057 -9.5625 8 C-13.25131272 7.51885052 -14.90428586 7.48410243 -17.875 9.8125 Z " fill="#50AA72" transform="translate(705.5625,738)"/>
<path d="M0 0 C1.03769531 -0.02578125 2.07539063 -0.0515625 3.14453125 -0.078125 C7.21646833 0.36095422 9.89584485 1.68101889 12.515625 4.86328125 C12.81984375 5.42402344 13.1240625 5.98476563 13.4375 6.5625 C13.75203125 7.11550781 14.0665625 7.66851563 14.390625 8.23828125 C16.29620391 13.04893388 16.30776657 18.069755 16.28515625 23.1796875 C16.28193359 24.46875 16.27871094 25.7578125 16.27539062 27.0859375 C16.26703733 28.43229236 16.25857241 29.77864652 16.25 31.125 C16.2449783 32.49479004 16.24041657 33.86458185 16.23632812 35.234375 C16.22457263 38.57293564 16.20663805 41.91147351 16.1875 45.25 C11.2375 45.25 6.2875 45.25 1.1875 45.25 C1.16171875 43.11917969 1.1359375 40.98835937 1.109375 38.79296875 C1.0709537 36.72764922 1.02579436 34.66257931 0.97998047 32.59741211 C0.95176818 31.16296317 0.93055476 29.72835871 0.91650391 28.29370117 C0.89507551 26.23014698 0.84843533 24.16846294 0.796875 22.10546875 C0.77592773 20.86434326 0.75498047 19.62321777 0.73339844 18.34448242 C0.46665974 15.19048419 0.46665974 15.19048419 -1.65136719 13.27856445 C-3.91328691 11.93234283 -3.91328691 11.93234283 -7 12.9375 C-9.91888007 13.94493122 -9.91888007 13.94493122 -10.8125 16.25 C-10.96719367 18.42674783 -11.06252106 20.6078348 -11.12890625 22.7890625 C-11.17080078 24.09101562 -11.21269531 25.39296875 -11.25585938 26.734375 C-11.29567299 28.11458045 -11.33538522 29.49478883 -11.375 30.875 C-11.41819407 32.26303415 -11.46180865 33.65105528 -11.50585938 35.0390625 C-11.61221934 38.44258129 -11.71288918 41.846277 -11.8125 45.25 C-16.4325 45.25 -21.0525 45.25 -25.8125 45.25 C-26.1425 30.73 -26.4725 16.21 -26.8125 1.25 C-22.5225 1.25 -18.2325 1.25 -13.8125 1.25 C-13.4825 2.57 -13.1525 3.89 -12.8125 5.25 C-12.02875 4.610625 -11.245 3.97125 -10.4375 3.3125 C-6.67423978 0.35565268 -4.74423113 0.07019824 0 0 Z " fill="#50AA72" transform="translate(393.8125,735.75)"/>
<path d="M0 0 C5.15971876 3.14454963 8.60583659 7.24273527 10.875 12.8125 C12.19090615 20.44475567 12.10202546 27.41290943 8.5 34.4375 C4.36012181 40.22659795 -0.54872378 43.13852414 -7.5 44.4375 C-13.77079427 45.20778788 -19.91235983 44.51121099 -25.5 41.4375 C-30.66462077 36.89263372 -34.0664521 32.17513928 -34.87109375 25.23828125 C-35.02215625 17.30305699 -34.5603252 10.82948973 -29.5 4.4375 C-21.56923404 -2.22804649 -9.63854125 -4.37945369 0 0 Z M-18.5 12.4375 C-20.97442583 17.50418146 -20.72772909 22.06123472 -19.5 27.4375 C-17.75631835 31.18420186 -17.75631835 31.18420186 -14.5 33.4375 C-10.81987667 33.8375134 -9.1510711 33.94779897 -6.1875 31.625 C-2.68239108 27.08134029 -3.0129225 21.93207604 -3.5 16.4375 C-5.04228466 12.32474091 -5.83671407 10.87969062 -9.5 8.4375 C-14.01694419 7.74258551 -15.76526086 8.85404871 -18.5 12.4375 Z " fill="#50AA72" transform="translate(504.5,737.5625)"/>
<path d="M0 0 C5.04550388 2.30145791 6.97911322 4.89460181 9 10 C10.21475809 13.71892422 10.113608 17.27964908 10.09765625 21.171875 C10.0962413 21.8542926 10.09482635 22.53671021 10.09336853 23.23980713 C10.08779084 25.40991684 10.07524254 27.5799217 10.0625 29.75 C10.05748211 31.22525892 10.05291971 32.70051947 10.04882812 34.17578125 C10.03868148 37.78392663 10.01910199 41.39184655 10 45 C5.38 45 0.76 45 -4 45 C-4.04898438 43.10894531 -4.09796875 41.21789062 -4.1484375 39.26953125 C-4.22347725 36.7838396 -4.29902456 34.29816323 -4.375 31.8125 C-4.4059375 30.56662109 -4.436875 29.32074219 -4.46875 28.03710938 C-4.50742187 26.83505859 -4.54609375 25.63300781 -4.5859375 24.39453125 C-4.6173584 23.28956299 -4.6487793 22.18459473 -4.68115234 21.04614258 C-5.00277218 17.97351573 -5.57505825 15.73552868 -7 13 C-10.29888363 11.78462182 -12.69183862 11.89727954 -16 13 C-17.05955248 16.51424524 -17.19998141 19.85655874 -17.31640625 23.515625 C-17.35830078 24.76601563 -17.40019531 26.01640625 -17.44335938 27.3046875 C-17.48267578 28.60664062 -17.52199219 29.90859375 -17.5625 31.25 C-17.60568359 32.56742188 -17.64886719 33.88484375 -17.69335938 35.2421875 C-17.79941854 38.49466854 -17.90021153 41.74732053 -18 45 C-22.62 45 -27.24 45 -32 45 C-32 30.48 -32 15.96 -32 1 C-28.04 1 -24.08 1 -20 1 C-19.67 2.32 -19.34 3.64 -19 5 C-18.21625 4.360625 -17.4325 3.72125 -16.625 3.0625 C-11.46317414 -0.99322032 -6.38983875 -0.59304386 0 0 Z " fill="#50AA72" transform="translate(756,736)"/>
<path d="M0 0 C5.04550388 2.30145791 6.97911322 4.89460181 9 10 C10.21475809 13.71892422 10.113608 17.27964908 10.09765625 21.171875 C10.0962413 21.8542926 10.09482635 22.53671021 10.09336853 23.23980713 C10.08779084 25.40991684 10.07524254 27.5799217 10.0625 29.75 C10.05748211 31.22525892 10.05291971 32.70051947 10.04882812 34.17578125 C10.03868148 37.78392663 10.01910199 41.39184655 10 45 C5.38 45 0.76 45 -4 45 C-4.04898437 43.10894531 -4.09796875 41.21789062 -4.1484375 39.26953125 C-4.22347725 36.7838396 -4.29902456 34.29816323 -4.375 31.8125 C-4.4059375 30.56662109 -4.436875 29.32074219 -4.46875 28.03710938 C-4.50742187 26.83505859 -4.54609375 25.63300781 -4.5859375 24.39453125 C-4.6173584 23.28956299 -4.6487793 22.18459473 -4.68115234 21.04614258 C-5.00277218 17.97351573 -5.57505825 15.73552868 -7 13 C-10.29888363 11.78462182 -12.69183862 11.89727954 -16 13 C-17.05955248 16.51424524 -17.19998141 19.85655874 -17.31640625 23.515625 C-17.35830078 24.76601563 -17.40019531 26.01640625 -17.44335938 27.3046875 C-17.48267578 28.60664062 -17.52199219 29.90859375 -17.5625 31.25 C-17.60568359 32.56742188 -17.64886719 33.88484375 -17.69335938 35.2421875 C-17.79941854 38.49466854 -17.90021153 41.74732053 -18 45 C-22.62 45 -27.24 45 -32 45 C-32 30.48 -32 15.96 -32 1 C-28.04 1 -24.08 1 -20 1 C-19.67 2.32 -19.34 3.64 -19 5 C-18.21625 4.360625 -17.4325 3.72125 -16.625 3.0625 C-11.46317414 -0.99322032 -6.38983875 -0.59304386 0 0 Z " fill="#50AA72" transform="translate(452,736)"/>
<path d="M0 0 C0.67675781 -0.01353516 1.35351562 -0.02707031 2.05078125 -0.04101562 C7.40993226 0.006271 11.42784162 1.25089812 15.45703125 4.83984375 C19.67428275 10.15724782 19.96594582 14.14174253 20.12890625 20.765625 C20.14968735 21.47023865 20.17046844 22.17485229 20.19187927 22.90081787 C20.25703837 25.14211681 20.31610248 27.38352864 20.375 29.625 C20.41821726 31.14844897 20.46183257 32.67188671 20.50585938 34.1953125 C20.61268491 37.92175591 20.71404639 41.64832494 20.8125 45.375 C16.5225 45.375 12.2325 45.375 7.8125 45.375 C7.4825 44.715 7.1525 44.055 6.8125 43.375 C6.049375 43.684375 5.28625 43.99375 4.5 44.3125 C-1.42367334 46.65441737 -6.41644157 47.38750212 -12.4375 45.1875 C-16.99260663 42.18527063 -18.83123883 39.84754615 -20.125 34.5 C-20.54388568 29.21406172 -18.65755126 25.26506591 -15.4375 21.125 C-9.40713266 16.43471429 -2.56073154 15.50831769 4.8125 14.375 C4.1525 13.385 3.4925 12.395 2.8125 11.375 C-2.98504745 10.49400014 -8.79648018 11.04374819 -14.1875 13.375 C-15.1775 10.075 -16.1675 6.775 -17.1875 3.375 C-11.41825675 0.90246718 -6.26287733 0.05180689 0 0 Z M-4.1875 27.375 C-5.69202457 29.91868999 -5.69202457 29.91868999 -6.1875 32.375 C-4.8675 33.695 -3.5475 35.015 -2.1875 36.375 C2.22772109 35.10525028 2.22772109 35.10525028 5.8125 32.375 C6.05462873 30.39371492 6.05462873 30.39371492 5.9375 28.25 C5.89625 26.97125 5.855 25.6925 5.8125 24.375 C1.82176247 24.375 -0.67138132 25.52104652 -4.1875 27.375 Z " fill="#50AA72" transform="translate(586.1875,735.625)"/>
<path d="M0 0 C0.67675781 -0.01353516 1.35351562 -0.02707031 2.05078125 -0.04101562 C7.40993226 0.006271 11.42784162 1.25089812 15.45703125 4.83984375 C19.67428275 10.15724782 19.96594582 14.14174253 20.12890625 20.765625 C20.14968735 21.47023865 20.17046844 22.17485229 20.19187927 22.90081787 C20.25703837 25.14211681 20.31610248 27.38352864 20.375 29.625 C20.41821726 31.14844897 20.46183257 32.67188671 20.50585938 34.1953125 C20.61268491 37.92175591 20.71404639 41.64832494 20.8125 45.375 C16.5225 45.375 12.2325 45.375 7.8125 45.375 C7.4825 44.715 7.1525 44.055 6.8125 43.375 C6.049375 43.684375 5.28625 43.99375 4.5 44.3125 C-1.42367334 46.65441737 -6.41644157 47.38750212 -12.4375 45.1875 C-16.99260663 42.18527063 -18.83123883 39.84754615 -20.125 34.5 C-20.54388568 29.21406172 -18.65755126 25.26506591 -15.4375 21.125 C-9.40713266 16.43471429 -2.56073154 15.50831769 4.8125 14.375 C4.1525 13.385 3.4925 12.395 2.8125 11.375 C-2.98504745 10.49400014 -8.79648018 11.04374819 -14.1875 13.375 C-15.1775 10.075 -16.1675 6.775 -17.1875 3.375 C-11.41825675 0.90246718 -6.26287733 0.05180689 0 0 Z M-4.1875 27.375 C-5.69202457 29.91868999 -5.69202457 29.91868999 -6.1875 32.375 C-4.8675 33.695 -3.5475 35.015 -2.1875 36.375 C2.22772109 35.10525028 2.22772109 35.10525028 5.8125 32.375 C6.05462873 30.39371492 6.05462873 30.39371492 5.9375 28.25 C5.89625 26.97125 5.855 25.6925 5.8125 24.375 C1.82176247 24.375 -0.67138132 25.52104652 -4.1875 27.375 Z " fill="#50AA72" transform="translate(211.1875,735.625)"/>
<path d="M0 0 C5.28 0 10.56 0 16 0 C18.31 8.25 20.62 16.5 23 25 C24.94754408 19.15736775 26.86329514 13.31794287 28.6875 7.4375 C29.02491211 6.3537207 29.02491211 6.3537207 29.36914062 5.24804688 C29.91356234 3.49894732 30.45690041 1.74951053 31 0 C35.95 0 40.9 0 46 0 C43.66859292 8.28220136 40.74554177 16.27692432 37.70166016 24.31640625 C36.86662004 26.52213536 36.03643876 28.72964743 35.20703125 30.9375 C34.67735947 32.34385403 34.14742148 33.75010784 33.6171875 35.15625 C33.3692746 35.81451782 33.12136169 36.47278564 32.86593628 37.15100098 C31.98344091 39.47979857 31.1145752 41.77084959 30 44 C25.38 44 20.76 44 16 44 C12.38753491 36.27528702 9.46840949 28.34419027 6.57128906 20.33178711 C5.74246121 18.04166972 4.90669599 15.7541642 4.0703125 13.46679688 C3.54125402 12.01056652 3.01259336 10.55419155 2.484375 9.09765625 C2.23443787 8.41437759 1.98450073 7.73109894 1.72698975 7.02711487 C0 2.23000188 0 2.23000188 0 0 Z " fill="#50AA72" transform="translate(518,737)"/>
<path d="M0 0 C0 4.29 0 8.58 0 13 C3.3 13 6.6 13 10 13 C10 16.3 10 19.6 10 23 C6.7 23 3.4 23 0 23 C0.11377842 26.10495317 0.2405278 29.2084334 0.375 32.3125 C0.4059375 33.19357422 0.436875 34.07464844 0.46875 34.98242188 C0.50742187 35.82998047 0.54609375 36.67753906 0.5859375 37.55078125 C0.63306885 38.72120972 0.63306885 38.72120972 0.68115234 39.9152832 C0.89587889 42.30155768 0.89587889 42.30155768 3 45 C6.06556598 45.73343428 6.06556598 45.73343428 9 46 C9.33 49.3 9.66 52.6 10 56 C4.56837954 58.42993547 -0.30595438 58.4235114 -6 57 C-9.39996462 55.25821485 -11.49876489 53.06214107 -13.1484375 49.56640625 C-14.38025188 44.40747721 -14.20956497 39.40705801 -14.125 34.125 C-14.11597656 33.05507813 -14.10695313 31.98515625 -14.09765625 30.8828125 C-14.07419342 28.25497561 -14.04136459 25.62760594 -14 23 C-15.98 23 -17.96 23 -20 23 C-20 19.7 -20 16.4 -20 13 C-18.02 13 -16.04 13 -14 13 C-14 9.7 -14 6.4 -14 3 C-12.0424015 2.49713066 -10.08389623 1.9977901 -8.125 1.5 C-7.03445313 1.2215625 -5.94390625 0.943125 -4.8203125 0.65625 C-2 0 -2 0 0 0 Z " fill="#50AA72" transform="translate(631,724)"/>
<path d="M0 0 C4.62 0 9.24 0 14 0 C14 20.13 14 40.26 14 61 C9.38 61 4.76 61 0 61 C0 40.87 0 20.74 0 0 Z " fill="#50AA72" transform="translate(343,720)"/>
<path d="M0 0 C0 4.29 0 8.58 0 13 C-3.80859375 13.63476562 -3.80859375 13.63476562 -7.6171875 14.26953125 C-10.34412478 14.83051301 -10.34412478 14.83051301 -12 18 C-12.36887189 20.90644244 -12.36887189 20.90644244 -12.4140625 24.19921875 C-12.47207031 26.01196289 -12.47207031 26.01196289 -12.53125 27.86132812 C-12.57765625 29.7552832 -12.57765625 29.7552832 -12.625 31.6875 C-12.68300781 33.59885742 -12.68300781 33.59885742 -12.7421875 35.54882812 C-12.83657398 38.69897694 -12.91938035 41.8494688 -13 45 C-17.95 45 -22.9 45 -28 45 C-28 30.48 -28 15.96 -28 1 C-24.04 1 -20.08 1 -16 1 C-15.34 2.32 -14.68 3.64 -14 5 C-13.175 4.175 -12.35 3.35 -11.5 2.5 C-7.71189747 -0.71716841 -4.82272823 -0.41575243 0 0 Z " fill="#50AA72" transform="translate(318,736)"/>
<path d="M0 0 C4.62 0 9.24 0 14 0 C14 14.52 14 29.04 14 44 C9.38 44 4.76 44 0 44 C0 29.48 0 14.96 0 0 Z " fill="#50AA72" transform="translate(648,737)"/>
<path d="M0 0 C2.48669495 1.52410336 2.87204541 2.6526947 3.875 5.375 C4.0376843 8.79137035 3.02489572 10.30013904 1 13 C-1.80915474 14.40457737 -3.88810534 14.24895157 -7 14 C-9.375 13 -9.375 13 -11 11 C-11.65964122 7.44238446 -11.63041883 4.26083766 -10 1 C-6.74875016 -0.62562492 -3.55363728 -0.54157729 0 0 Z " fill="#50AA72" transform="translate(659,718)"/>
</svg>